<svg xmlns="http://www.w3.org/2000/svg" xmlns:xlink="http://www.w3.org/1999/xlink" width="500" zoomAndPan="magnify" viewBox="0 0 375 142.499996" height="190" preserveAspectRatio="xMidYMid meet" version="1.0"><path fill="#014c9b" d="M 151.601562 34.683594 L 152.84375 34.667969 L 154.042969 34.667969 L 155.136719 34.664062 C 156.1875 34.761719 156.742188 34.890625 157.605469 35.5 C 158.230469 36.355469 158.230469 36.355469 158.847656 37.4375 L 159.558594 38.660156 L 159.929688 39.3125 C 160.589844 40.464844 161.257812 41.609375 161.925781 42.753906 L 162.339844 43.46875 C 163.742188 45.875 165.199219 48.246094 166.667969 50.613281 C 168.390625 53.394531 170.101562 56.183594 171.78125 58.996094 C 173.492188 61.859375 175.210938 64.714844 176.941406 67.570312 C 177.21875 68.027344 177.496094 68.488281 177.773438 68.945312 C 178.164062 69.59375 178.554688 70.242188 178.949219 70.890625 L 179.632812 72.019531 C 180.605469 73.570312 181.628906 75.085938 182.640625 76.605469 L 183.015625 35.125 C 184.1875 34.734375 185.019531 34.703125 186.25 34.703125 L 187.5 34.703125 L 188.808594 34.707031 L 190.113281 34.703125 L 192.511719 34.703125 C 193.480469 34.753906 193.480469 34.753906 194.601562 35.125 L 194.601562 101.644531 C 192.835938 102.230469 191.050781 102.085938 189.207031 102.085938 L 188.015625 102.101562 L 186.871094 102.101562 L 185.824219 102.109375 C 184.800781 102.007812 184.238281 101.847656 183.390625 101.269531 C 182.835938 100.550781 182.835938 100.550781 182.308594 99.660156 L 181.703125 98.640625 L 181.054688 97.53125 C 180.585938 96.746094 180.117188 95.960938 179.648438 95.175781 L 178.90625 93.929688 C 177.683594 91.878906 176.425781 89.847656 175.167969 87.816406 C 173.078125 84.425781 170.996094 81.023438 168.929688 77.617188 C 167.753906 75.683594 166.570312 73.753906 165.382812 71.824219 L 164.980469 71.175781 C 164.339844 70.136719 163.699219 69.097656 163.058594 68.058594 C 161.449219 65.449219 159.882812 62.820312 158.351562 60.164062 C 158.058594 61.199219 157.933594 62.113281 157.9375 63.1875 L 157.9375 64.101562 L 157.941406 65.097656 L 157.945312 66.148438 C 157.945312 66.90625 157.949219 67.660156 157.949219 68.414062 C 157.957031 69.613281 157.957031 70.808594 157.960938 72.007812 C 157.964844 74.984375 157.972656 77.957031 157.980469 80.933594 C 157.988281 83.445312 157.996094 85.957031 158 88.46875 C 158.003906 89.644531 158.007812 90.820312 158.011719 91.996094 L 158.015625 94.179688 L 158.019531 95.15625 C 158.019531 97.339844 157.859375 99.476562 157.605469 101.644531 C 156.433594 102.035156 155.601562 102.066406 154.371094 102.066406 L 153.117188 102.066406 L 151.8125 102.0625 L 150.507812 102.066406 L 148.109375 102.066406 C 147.140625 102.015625 147.140625 102.015625 146.019531 101.644531 L 146.019531 35.125 C 147.835938 34.519531 149.703125 34.683594 151.601562 34.683594 " fill-opacity="1" fill-rule="nonzero"/><path fill="#ea332f" d="M 128.457031 20.179688 L 129.203125 20.554688 C 128.132812 23.054688 125.753906 24.867188 123.714844 26.601562 C 121.996094 28.074219 120.425781 29.6875 118.84375 31.300781 C 117.757812 32.402344 116.65625 33.457031 115.480469 34.464844 C 113.890625 35.847656 112.390625 37.3125 110.902344 38.804688 L 110.082031 39.625 C 109.511719 40.195312 108.941406 40.765625 108.375 41.335938 C 107.507812 42.199219 106.644531 43.066406 105.777344 43.929688 L 104.109375 45.601562 L 103.335938 46.371094 C 101.875 47.839844 100.46875 49.359375 99.121094 50.929688 C 98.410156 51.742188 97.65625 52.5 96.878906 53.25 C 95.644531 54.472656 94.460938 55.746094 93.332031 57.066406 C 92.5625 57.945312 91.769531 58.800781 90.972656 59.652344 C 89.089844 61.664062 87.289062 63.742188 85.5625 65.886719 C 84.6875 66.945312 83.773438 67.957031 82.84375 68.96875 C 81.449219 70.488281 80.117188 72.058594 78.84375 73.679688 C 78.214844 74.476562 77.574219 75.269531 76.925781 76.050781 C 74.007812 79.589844 71.25 83.222656 68.558594 86.9375 C 67.945312 87.78125 67.328125 88.621094 66.707031 89.460938 C 55.222656 105.070312 46.089844 122.175781 37.277344 139.386719 C 36.269531 138.5 35.8125 137.640625 35.292969 136.414062 L 34.804688 135.28125 L 34.289062 134.0625 C 28.367188 120.371094 20.945312 108 12.613281 95.664062 L 11.996094 94.75 C 9.765625 91.4375 7.4375 88.203125 5.054688 85 C 3.917969 83.472656 2.8125 81.941406 1.777344 80.34375 C 12.898438 83.648438 24.042969 91.453125 32.089844 99.746094 C 35.945312 104.003906 35.945312 104.003906 36.53125 105.753906 L 37.277344 105.753906 L 37.414062 105.101562 C 39.074219 99.210938 44.382812 93.632812 48.113281 88.9375 L 48.878906 87.972656 C 50.363281 86.105469 51.871094 84.265625 53.4375 82.46875 L 53.988281 81.832031 C 57.429688 77.863281 61.050781 74.070312 64.769531 70.363281 C 65.402344 69.734375 66.035156 69.101562 66.664062 68.46875 C 68.566406 66.566406 70.472656 64.695312 72.519531 62.949219 C 73.480469 62.125 74.398438 61.261719 75.324219 60.398438 C 77.050781 58.800781 78.828125 57.292969 80.660156 55.816406 C 81.890625 54.8125 83.089844 53.777344 84.292969 52.738281 C 86.660156 50.691406 89.09375 48.753906 91.566406 46.835938 C 92.1875 46.351562 92.808594 45.867188 93.425781 45.378906 C 99.128906 40.863281 104.902344 36.449219 110.875 32.296875 C 111.914062 31.574219 112.949219 30.839844 113.984375 30.105469 C 118.757812 26.722656 123.582031 23.414062 128.457031 20.179688 " fill-opacity="1" fill-rule="nonzero"/><path fill="#034d9b" d="M 225.128906 34.683594 C 225.960938 34.683594 226.792969 34.675781 227.628906 34.667969 C 228.160156 34.667969 228.691406 34.667969 229.222656 34.667969 L 230.683594 34.664062 C 231.96875 34.753906 231.96875 34.753906 233 34.929688 C 233.835938 35.5 233.835938 35.5 234.167969 36.109375 C 234.503906 36.972656 234.777344 37.839844 235.039062 38.726562 L 235.363281 39.761719 C 235.726562 40.914062 236.078125 42.074219 236.429688 43.230469 C 236.6875 44.058594 236.945312 44.890625 237.207031 45.71875 C 237.773438 47.542969 238.339844 49.367188 238.898438 51.195312 C 239.777344 54.0625 240.664062 56.929688 241.554688 59.792969 C 242.691406 63.445312 243.824219 67.097656 244.953125 70.753906 C 246.613281 76.128906 248.28125 81.503906 249.976562 86.871094 L 250.203125 87.601562 C 250.984375 90.066406 251.765625 92.535156 252.550781 95.003906 L 253.289062 97.339844 L 253.632812 98.410156 L 253.9375 99.378906 L 254.203125 100.21875 C 254.390625 100.894531 254.390625 100.894531 254.390625 101.644531 C 253.035156 102.066406 251.761719 102.066406 250.347656 102.066406 L 249.613281 102.066406 C 249.101562 102.066406 248.585938 102.066406 248.074219 102.066406 C 247.292969 102.0625 246.511719 102.066406 245.730469 102.066406 C 245.230469 102.066406 244.730469 102.066406 244.230469 102.066406 L 242.859375 102.066406 C 240.910156 101.984375 240.910156 101.984375 240.191406 101.644531 C 239.796875 100.84375 239.796875 100.84375 239.511719 99.789062 L 239.183594 98.625 L 238.859375 97.394531 L 238.53125 96.207031 C 238.203125 95.03125 237.890625 93.851562 237.574219 92.675781 L 236.453125 88.5625 L 214.40625 88.191406 L 213.660156 91.925781 C 213.460938 92.699219 213.25 93.464844 213.027344 94.226562 L 212.679688 95.40625 L 212.328125 96.597656 L 211.96875 97.824219 C 211.097656 100.789062 211.097656 100.789062 210.667969 101.644531 C 209.433594 102.054688 208.503906 102.066406 207.203125 102.066406 L 205.804688 102.066406 L 204.339844 102.0625 L 202.878906 102.066406 L 200.195312 102.066406 C 199.25 102.023438 198.496094 101.890625 197.589844 101.644531 C 198.445312 98.367188 199.441406 95.144531 200.46875 91.917969 L 200.992188 90.257812 C 201.464844 88.765625 201.9375 87.273438 202.410156 85.78125 C 202.90625 84.210938 203.402344 82.644531 203.898438 81.074219 C 204.519531 79.109375 205.144531 77.148438 205.765625 75.183594 C 207.453125 69.851562 209.136719 64.519531 210.816406 59.183594 L 211.121094 58.21875 L 213.183594 51.671875 C 213.644531 50.21875 214.101562 48.761719 214.5625 47.308594 L 215.0625 45.71875 C 215.4375 44.523438 215.816406 43.332031 216.199219 42.140625 C 216.515625 41.140625 216.824219 40.144531 217.125 39.140625 L 217.601562 37.59375 L 218.027344 36.1875 L 218.515625 35.125 C 220.421875 34.242188 223.039062 34.683594 225.128906 34.683594 M 225.242188 49.699219 L 225.042969 50.410156 C 224.085938 53.792969 223.128906 57.179688 222.171875 60.566406 L 221.046875 64.554688 L 220.675781 65.859375 C 219.902344 68.589844 219.117188 71.3125 218.285156 74.027344 C 217.972656 75.058594 217.769531 75.894531 217.769531 76.980469 C 222.875 77.40625 227.96875 77.394531 233.089844 77.355469 L 233.464844 76.605469 C 233.304688 75.839844 233.109375 75.085938 232.902344 74.332031 L 232.707031 73.628906 C 232.492188 72.855469 232.273438 72.082031 232.054688 71.3125 C 231.90625 70.773438 231.753906 70.238281 231.605469 69.699219 C 231.210938 68.28125 230.8125 66.863281 230.414062 65.449219 C 230.011719 64.011719 229.613281 62.578125 229.210938 61.144531 C 228.148438 57.328125 227.082031 53.511719 225.988281 49.699219 Z M 225.242188 49.699219 " fill-opacity="1" fill-rule="nonzero"/><path fill="#024c9b" d="M 273.261719 33.890625 L 274.675781 33.894531 C 280.625 33.96875 286.253906 34.621094 291.5625 37.496094 C 294.6875 39.433594 297.332031 42.078125 299.128906 45.292969 C 300.640625 48.59375 301.34375 52.066406 301.476562 55.679688 L 301.519531 56.484375 C 301.664062 60.960938 300.929688 65.511719 298.859375 69.507812 C 296.910156 72.65625 294.703125 75.019531 291.570312 77.027344 C 285.058594 80.515625 278.183594 80.34375 270.832031 80.34375 L 270.832031 101.644531 C 269.441406 101.992188 268.378906 102.066406 266.957031 102.066406 L 265.558594 102.066406 L 264.105469 102.0625 L 262.652344 102.066406 L 259.980469 102.066406 C 258.875 102.015625 258.875 102.015625 257.378906 101.644531 L 257.378906 34.753906 C 269.308594 33.871094 269.308594 33.871094 273.261719 33.890625 M 271.207031 45.214844 L 270.832031 45.589844 C 270.796875 46.324219 270.789062 47.058594 270.789062 47.792969 L 270.789062 49.222656 L 270.796875 50.777344 L 270.796875 52.359375 C 270.800781 53.75 270.800781 55.136719 270.808594 56.527344 C 270.808594 57.945312 270.8125 59.363281 270.8125 60.78125 C 270.816406 63.566406 270.824219 66.347656 270.832031 69.132812 C 272.089844 69.152344 273.347656 69.164062 274.605469 69.171875 L 275.679688 69.1875 C 278.296875 69.203125 280.472656 68.945312 282.789062 67.636719 C 284.515625 66.59375 285.28125 65.492188 286.269531 63.738281 C 287.460938 61.203125 287.738281 58.835938 287.648438 56.054688 C 287.425781 53.632812 286.808594 51.339844 285.40625 49.328125 C 284.050781 47.757812 282.515625 46.640625 280.617188 45.800781 C 277.621094 44.808594 274.320312 45.023438 271.207031 45.214844 " fill-opacity="1" fill-rule="nonzero"/><path fill="#014c9b" d="M 325.015625 35.125 L 371.730469 35.125 C 372.574219 40.203125 372.574219 40.203125 372.382812 42.390625 L 372.28125 43.671875 C 372.101562 44.84375 372.101562 44.84375 371.355469 46.710938 L 354.914062 46.710938 L 354.914062 101.644531 C 353.40625 101.945312 352.21875 102.066406 350.707031 102.066406 L 349.367188 102.066406 L 347.976562 102.0625 L 346.582031 102.066406 L 344.019531 102.066406 C 342.953125 102.015625 342.953125 102.015625 341.460938 101.644531 L 341.460938 46.710938 L 325.765625 46.710938 L 324.644531 45.964844 C 324.488281 45.042969 324.394531 44.117188 324.363281 43.183594 L 324.324219 42.375 C 324.105469 36.953125 324.105469 36.953125 325.015625 35.125 M 310.253906 34.703125 L 312.460938 34.703125 C 313.21875 34.707031 313.976562 34.703125 314.734375 34.703125 L 317.519531 34.703125 C 318.664062 34.753906 318.664062 34.753906 320.160156 35.125 L 320.160156 101.644531 C 318.769531 101.992188 317.703125 102.066406 316.28125 102.066406 L 314.886719 102.066406 L 313.433594 102.0625 L 311.980469 102.066406 L 309.308594 102.066406 C 308.203125 102.015625 308.203125 102.015625 306.707031 101.644531 L 306.707031 35.125 C 307.964844 34.707031 308.929688 34.703125 310.253906 34.703125 " fill-opacity="1" fill-rule="nonzero"/><path fill="#08519d" d="M 46.992188 122.945312 L 98.5625 122.945312 L 98.5625 131.164062 L 42.882812 131.164062 C 43.628906 128.921875 43.628906 128.921875 46.992188 122.945312 " fill-opacity="1" fill-rule="nonzero"/><path fill="#054f9c" d="M 67.6875 113.585938 C 77.980469 113.480469 88.273438 113.753906 98.5625 113.976562 L 98.5625 121.824219 L 47.742188 121.824219 C 50.730469 115.84375 50.730469 115.84375 51.851562 113.976562 C 52.84375 113.773438 53.609375 113.707031 54.605469 113.710938 L 55.449219 113.695312 C 56.367188 113.675781 57.285156 113.675781 58.203125 113.671875 C 58.851562 113.664062 59.5 113.652344 60.148438 113.644531 C 61.804688 113.621094 63.460938 113.613281 65.121094 113.605469 C 65.976562 113.601562 66.832031 113.59375 67.6875 113.585938 " fill-opacity="1" fill-rule="nonzero"/><path fill="#165aa3" d="M 22.9375 41.433594 L 23.890625 41.433594 C 24.941406 41.433594 25.992188 41.433594 27.042969 41.4375 L 29.308594 41.4375 C 31.355469 41.4375 33.402344 41.4375 35.449219 41.441406 C 37.589844 41.445312 39.726562 41.445312 41.867188 41.445312 C 45.917969 41.445312 49.96875 41.449219 54.019531 41.453125 C 58.632812 41.457031 63.246094 41.460938 67.859375 41.460938 C 77.347656 41.464844 86.832031 41.472656 96.320312 41.480469 L 95.46875 42.324219 C 94.894531 42.902344 94.328125 43.484375 93.785156 44.09375 C 92.925781 44.925781 92.175781 45.445312 91.089844 45.964844 C 88.742188 46.449219 86.292969 46.292969 83.914062 46.261719 C 83.183594 46.261719 82.457031 46.261719 81.726562 46.261719 C 79.753906 46.261719 77.78125 46.246094 75.808594 46.230469 C 73.742188 46.210938 71.675781 46.210938 69.613281 46.207031 C 65.707031 46.199219 61.796875 46.179688 57.890625 46.152344 C 53.441406 46.125 48.992188 46.105469 44.546875 46.09375 C 35.394531 46.066406 26.246094 46.023438 17.097656 45.964844 L 17.097656 41.851562 C 19.0625 41.527344 20.945312 41.425781 22.9375 41.433594 " fill-opacity="1" fill-rule="nonzero"/><path fill="#024d9b" d="M 57.828125 104.632812 C 58.558594 104.539062 58.558594 104.539062 59.464844 104.542969 L 60.507812 104.539062 L 61.652344 104.546875 L 62.859375 104.546875 C 64.175781 104.546875 65.496094 104.554688 66.8125 104.558594 L 69.550781 104.5625 C 71.953125 104.566406 74.359375 104.574219 76.761719 104.582031 C 79.214844 104.589844 81.667969 104.59375 84.121094 104.597656 C 88.933594 104.605469 93.746094 104.617188 98.5625 104.632812 L 98.5625 112.855469 L 52.972656 112.855469 C 53.457031 111.644531 53.851562 110.683594 54.5 109.601562 L 54.945312 108.867188 L 55.402344 108.113281 L 55.859375 107.347656 C 56.457031 106.355469 57.007812 105.457031 57.828125 104.632812 " fill-opacity="1" fill-rule="nonzero"/><path fill="#155aa2" d="M 17.097656 50.449219 L 85.109375 50.449219 L 83.242188 52.316406 L 82.457031 53.222656 C 81.527344 54.214844 80.664062 54.960938 79.503906 55.679688 C 77.449219 56.148438 75.445312 56.105469 73.351562 56.0625 C 72.734375 56.058594 72.121094 56.0625 71.503906 56.0625 C 69.84375 56.0625 68.183594 56.042969 66.523438 56.019531 C 64.785156 56 63.046875 55.996094 61.304688 55.992188 C 58.015625 55.984375 54.730469 55.957031 51.441406 55.921875 C 47.695312 55.882812 43.949219 55.867188 40.203125 55.847656 C 32.5 55.8125 24.800781 55.753906 17.097656 55.679688 Z M 17.097656 50.449219 " fill-opacity="1" fill-rule="nonzero"/><path fill="#024c9b" d="M 17.097656 32.511719 L 98.5625 32.511719 L 98.5625 36.621094 L 17.097656 36.621094 Z M 17.097656 23.167969 L 98.5625 23.167969 L 98.5625 27.277344 L 17.097656 27.277344 Z M 17.097656 59.417969 L 74.644531 59.417969 C 73.636719 60.679688 72.867188 61.605469 71.679688 62.617188 L 70.945312 63.246094 L 70.160156 63.902344 L 69.3125 64.679688 C 68.292969 65.394531 68.292969 65.394531 67.265625 65.578125 L 66.125 65.574219 L 64.8125 65.582031 L 63.382812 65.566406 C 62.878906 65.566406 62.371094 65.566406 61.867188 65.566406 C 60.5 65.566406 59.132812 65.558594 57.765625 65.546875 C 56.335938 65.539062 54.90625 65.535156 53.476562 65.535156 C 50.769531 65.53125 48.0625 65.519531 45.355469 65.503906 C 42.277344 65.484375 39.195312 65.476562 36.113281 65.46875 C 29.773438 65.453125 23.4375 65.429688 17.097656 65.394531 Z M 17.097656 59.417969 " fill-opacity="1" fill-rule="nonzero"/><path fill="#0c549f" d="M 64.195312 95.421875 C 66.582031 95.023438 69 95.152344 71.410156 95.226562 C 72.195312 95.234375 72.976562 95.242188 73.761719 95.246094 C 75.816406 95.261719 77.871094 95.308594 79.925781 95.355469 C 82.023438 95.402344 84.121094 95.421875 86.222656 95.445312 C 90.335938 95.492188 94.449219 95.574219 98.5625 95.664062 L 98.5625 103.511719 L 58.578125 103.511719 L 60.445312 100.148438 L 61 98.855469 C 61.757812 97.316406 62.476562 95.972656 64.195312 95.421875 " fill-opacity="1" fill-rule="nonzero"/><path fill="#034d9b" d="M 17.097656 68.386719 L 64.929688 68.386719 L 62.6875 71 L 61.785156 72.0625 L 60.960938 73.007812 L 60.128906 73.976562 C 59.324219 74.738281 59.324219 74.738281 58.636719 74.96875 C 57.773438 75.121094 56.976562 75.15625 56.105469 75.15625 L 55.058594 75.15625 L 53.921875 75.152344 L 52.71875 75.152344 C 51.402344 75.152344 50.089844 75.152344 48.773438 75.148438 L 46.039062 75.144531 C 43.640625 75.144531 41.242188 75.140625 38.84375 75.136719 C 36.398438 75.132812 33.949219 75.132812 31.503906 75.128906 C 26.703125 75.125 21.898438 75.121094 17.097656 75.113281 Z M 17.097656 68.386719 " fill-opacity="1" fill-rule="nonzero"/><path fill="#1861ad" d="M 17.097656 13.078125 L 98.5625 13.078125 L 98.5625 16.441406 L 17.097656 16.441406 Z M 17.097656 13.078125 " fill-opacity="1" fill-rule="nonzero"/><path fill="#1660ad" d="M 17.097656 2.617188 L 98.5625 2.617188 L 98.5625 5.605469 L 17.097656 5.605469 Z M 17.097656 2.617188 " fill-opacity="1" fill-rule="nonzero"/><path fill="#034d9b" d="M 17.097656 77.726562 L 55.960938 77.726562 L 53.71875 80.714844 L 53.117188 81.734375 C 52.40625 82.796875 51.820312 83.394531 50.730469 84.078125 C 48.25 84.691406 45.609375 84.46875 43.082031 84.410156 C 42.332031 84.402344 41.582031 84.398438 40.832031 84.394531 C 38.867188 84.382812 36.898438 84.347656 34.933594 84.3125 C 32.925781 84.277344 30.917969 84.261719 28.90625 84.242188 C 24.96875 84.207031 21.035156 84.152344 17.097656 84.078125 Z M 17.097656 77.726562 " fill-opacity="1" fill-rule="nonzero"/><path fill="#064f9d" d="M 73.191406 86.28125 L 74.023438 86.28125 C 74.925781 86.28125 75.832031 86.28125 76.738281 86.285156 L 78.621094 86.289062 C 80.273438 86.289062 81.925781 86.292969 83.578125 86.296875 C 85.265625 86.300781 86.949219 86.300781 88.636719 86.304688 C 91.945312 86.308594 95.253906 86.3125 98.5625 86.320312 L 98.5625 93.796875 L 64.929688 93.796875 C 68.496094 88.191406 68.496094 88.191406 69.789062 86.695312 C 70.886719 86.148438 71.988281 86.273438 73.191406 86.28125 " fill-opacity="1" fill-rule="nonzero"/><path fill="#054f9c" d="M 17.097656 86.320312 L 48.488281 86.320312 C 47.753906 87.789062 46.878906 88.992188 45.871094 90.269531 C 44.96875 91.425781 44.070312 92.574219 43.257812 93.796875 C 42.570312 93.953125 42.570312 93.953125 41.726562 93.976562 L 40.769531 94.007812 L 39.730469 94.023438 L 38.65625 94.042969 C 37.90625 94.054688 37.152344 94.0625 36.402344 94.066406 C 35.261719 94.074219 34.121094 94.109375 32.984375 94.144531 C 27.816406 94.230469 27.816406 94.230469 26.09375 93.484375 C 24.773438 92.660156 23.757812 91.5625 22.703125 90.433594 C 22.171875 90.035156 21.632812 89.660156 21.074219 89.300781 L 20.347656 88.828125 L 19.644531 88.378906 C 18.789062 87.828125 17.9375 87.265625 17.097656 86.695312 Z M 17.097656 86.320312 " fill-opacity="1" fill-rule="nonzero"/><path fill="#044e9c" d="M 98.5625 77.355469 L 98.5625 84.078125 L 72.03125 84.078125 L 74.273438 81.089844 L 74.890625 80.078125 C 75.484375 79.136719 76.03125 78.441406 76.886719 77.726562 C 78.527344 77.253906 80.09375 77.28125 81.789062 77.316406 L 83.207031 77.304688 C 84.445312 77.300781 85.683594 77.308594 86.917969 77.324219 C 88.183594 77.335938 89.449219 77.328125 90.710938 77.320312 C 93.328125 77.316406 95.945312 77.355469 98.5625 77.355469 " fill-opacity="1" fill-rule="nonzero"/><path fill="#1056a0" d="M 17.097656 122.945312 L 27.933594 122.945312 L 29.59375 126.003906 L 30.113281 126.957031 L 30.527344 127.722656 L 30.945312 128.5 C 31.296875 129.296875 31.296875 129.296875 31.671875 131.164062 L 17.097656 131.164062 Z M 17.097656 122.945312 " fill-opacity="1" fill-rule="nonzero"/><path fill="#08519d" d="M 87.140625 68.070312 C 88.710938 68.046875 90.269531 68.105469 91.835938 68.175781 C 92.488281 68.191406 93.140625 68.207031 93.792969 68.222656 C 95.386719 68.253906 96.96875 68.320312 98.5625 68.386719 L 98.5625 75.113281 L 79.503906 74.738281 L 81.746094 71.75 L 82.371094 70.726562 C 83.6875 68.789062 84.867188 68.199219 87.140625 68.070312 " fill-opacity="1" fill-rule="nonzero"/><path fill="#0a529e" d="M 17.097656 113.976562 C 21.507812 113.496094 21.507812 113.496094 23.078125 113.976562 C 24.542969 115.414062 25.25 116.945312 26.066406 118.832031 L 26.703125 120.066406 C 27.1875 121.074219 27.1875 121.074219 27.1875 121.824219 L 17.097656 121.824219 Z M 17.097656 113.976562 " fill-opacity="1" fill-rule="nonzero"/><path fill="#0b539f" d="M 92.582031 59.417969 C 93.589844 59.390625 94.585938 59.382812 95.597656 59.394531 L 98.5625 59.417969 L 98.5625 65.394531 L 87.351562 65.394531 C 89.902344 62.417969 89.902344 62.417969 91.019531 61.144531 L 91.679688 60.390625 C 91.972656 60.054688 92.273438 59.730469 92.582031 59.417969 " fill-opacity="1" fill-rule="nonzero"/><path fill="#0f56a0" d="M 29.429688 95.664062 L 41.386719 95.664062 C 40.667969 97.460938 39.835938 98.859375 38.773438 100.453125 L 38.261719 101.238281 C 37.828125 101.886719 37.367188 102.511719 36.902344 103.136719 L 36.15625 103.136719 C 35.632812 102.53125 35.125 101.90625 34.636719 101.269531 C 33.238281 99.507812 31.769531 98.027344 30.046875 96.582031 L 29.429688 96.039062 Z M 29.429688 95.664062 " fill-opacity="1" fill-rule="nonzero"/><path fill="#1f60a6" d="M 17.097656 105.007812 C 19.199219 107.109375 19.199219 107.109375 19.882812 108.269531 L 20.328125 109.011719 L 20.765625 109.769531 L 21.226562 110.546875 C 21.601562 111.1875 21.96875 111.832031 22.328125 112.480469 L 22.328125 112.855469 L 17.097656 112.855469 Z M 17.097656 105.007812 " fill-opacity="1" fill-rule="nonzero"/><path fill="#5165cc" d="M 97.816406 53.4375 L 98.5625 53.4375 L 98.5625 55.679688 L 96.320312 55.679688 C 96.796875 54.917969 97.292969 54.171875 97.816406 53.4375 " fill-opacity="1" fill-rule="nonzero"/></svg>